<?xml version="1.0" standalone="no"?>
<!DOCTYPE svg PUBLIC "-//W3C//DTD SVG 20010904//EN"
 "http://www.w3.org/TR/2001/REC-SVG-20010904/DTD/svg10.dtd">
<svg version="1.0" xmlns="http://www.w3.org/2000/svg"
 width="2706.000000pt" height="2706.000000pt" viewBox="0 0 2706.000000 2706.000000"
 preserveAspectRatio="xMidYMid meet">

<g transform="translate(0.000000,2706.000000) scale(0.100000,-0.100000)"
fill="#000000" stroke="none">
<path d="M6725 20423 c-1177 -27 -2345 -367 -3360 -976 -1572 -943 -2710
-2475 -3150 -4237 -199 -799 -255 -1623 -164 -2445 130 -1186 565 -2308 1273
-3285 785 -1083 1896 -1931 3151 -2405 1425 -538 3020 -584 4480 -130 356 111
625 220 1000 405 699 346 1275 759 1820 1305 683 683 1192 1459 1550 2359 585
1474 630 3163 124 4688 -443 1338 -1303 2523 -2449 3372 -188 140 -385 270
-595 396 -195 116 -665 352 -867 435 -656 269 -1323 431 -2033 495 -120 11
-598 31 -645 28 -14 -1 -74 -3 -135 -5z m770 -268 c1583 -150 3012 -824 4125
-1945 1034 -1041 1691 -2378 1879 -3825 40 -305 46 -421 46 -855 0 -434 -6
-550 -46 -855 -320 -2461 -2000 -4551 -4338 -5400 -527 -191 -1090 -316 -1666
-370 -236 -22 -726 -30 -960 -16 -566 35 -1091 130 -1607 292 -113 35 -128 42
-128 62 0 12 -52 856 -114 1876 l-114 1854 1000 1506 1000 1506 922 329 c506
181 924 331 928 335 3 3 -37 166 -89 363 l-96 356 -46 -14 c-613 -182 -1983
-593 -1985 -596 -2 -2 -315 -430 -696 -953 -381 -522 -699 -956 -706 -964 -8
-8 -16 -13 -18 -10 -3 3 15 273 39 601 l44 596 216 439 216 438 995 465 c547
256 994 467 994 468 0 2 -127 163 -282 358 -171 215 -287 353 -295 350 -7 -3
-278 -240 -603 -528 -325 -288 -594 -524 -599 -526 -5 -2 -7 16 -5 40 9 95 75
1410 72 1413 -5 6 -889 -82 -895 -89 -3 -3 29 -309 72 -680 l77 -674 -317
-628 -317 -627 -89 -551 c-49 -303 -89 -555 -89 -560 0 -6 -4 -6 -10 0 -12 12
-300 1206 -300 1243 0 14 61 354 135 756 73 401 133 730 132 731 -10 7 -741
64 -746 57 -4 -4 -29 -150 -56 -323 -26 -173 -51 -324 -55 -335 -8 -19 -8 -19
-18 5 -75 188 -666 1649 -671 1658 -5 9 -103 -104 -284 -327 -152 -187 -277
-346 -277 -352 0 -6 222 -369 493 -807 l494 -797 103 -773 c56 -425 100 -775
98 -777 -6 -6 -741 314 -754 328 -7 7 -312 704 -679 1549 l-667 1538 69 130
c37 71 75 139 83 151 l16 20 79 -27 c161 -54 325 -43 475 32 242 121 373 382
328 652 -19 109 -55 191 -127 286 l-52 68 48 56 c178 210 476 505 710 704 138
118 344 280 349 275 2 -2 17 -55 33 -118 176 -689 747 -1218 1451 -1344 142
-25 408 -31 556 -11 827 109 1471 751 1579 1573 48 368 -15 741 -182 1071 -34
69 -62 126 -61 128 2 1 71 7 153 12 215 15 823 7 1030 -13z m-6335 -3295 c-6
-11 -13 -20 -16 -20 -2 0 0 9 6 20 6 11 13 20 16 20 2 0 0 -9 -6 -20z m-187
-2075 c185 -506 339 -928 342 -937 4 -10 3 -18 -3 -18 -13 0 -981 525 -996
540 -24 24 90 629 175 925 50 177 133 425 140 418 4 -5 158 -422 342 -928z
m-113 -1330 l455 -208 305 -227 305 -228 398 -199 c222 -110 396 -203 395
-210 -2 -6 -61 -97 -133 -202 -105 -155 -134 -190 -150 -187 -21 3 -2135 833
-2142 840 -22 22 -57 868 -37 889 3 3 38 -9 77 -27 40 -18 277 -126 527 -241z
m583 -1826 c562 -281 1023 -512 1024 -513 0 0 -55 -514 -123 -1141 -68 -627
-124 -1144 -124 -1150 0 -13 -82 68 -220 220 -769 844 -1304 1849 -1565 2941
-40 165 -38 154 -25 154 6 0 470 -230 1033 -511z"/>
<path d="M8195 19323 c-171 -22 -349 -75 -486 -143 -409 -206 -697 -594 -773
-1039 -21 -125 -21 -367 0 -492 50 -295 185 -552 403 -769 297 -295 662 -436
1081 -417 354 17 667 151 921 395 160 153 271 318 348 517 267 690 -35 1474
-696 1804 -150 75 -300 120 -463 140 -80 10 -270 13 -335 4z"/>
<path d="M3609 17147 c-106 -30 -204 -112 -253 -212 -102 -209 -18 -454 191
-557 63 -31 74 -33 168 -33 128 1 191 24 275 102 137 126 173 321 90 489 -40
81 -128 164 -207 195 -71 27 -198 35 -264 16z"/>
<path d="M9211 15940 c-224 -59 -401 -253 -442 -485 -47 -274 91 -548 336
-665 95 -46 159 -60 265 -60 107 0 170 14 269 62 161 77 284 233 327 413 23
100 15 246 -19 343 -107 304 -424 473 -736 392z"/>
<path d="M9421 13959 c-88 -17 -165 -80 -204 -168 -29 -67 -27 -173 6 -238 31
-61 75 -106 131 -136 59 -31 193 -31 252 0 63 34 97 66 128 123 116 213 -73
467 -313 419z"/>
<path d="M7750 13090 c-440 -34 -754 -244 -819 -548 -14 -68 -14 -245 0 -314
37 -179 172 -321 397 -418 122 -53 221 -81 482 -139 434 -96 554 -144 665
-262 61 -65 87 -126 93 -217 16 -244 -170 -429 -493 -493 -108 -22 -331 -17
-430 10 -130 34 -254 101 -332 179 -80 79 -122 153 -157 277 -35 124 -58 145
-162 145 -73 0 -77 -1 -110 -34 -29 -29 -34 -41 -34 -83 0 -91 51 -248 118
-358 162 -270 528 -422 962 -402 339 17 576 103 745 272 85 86 132 155 168
251 19 52 22 78 22 224 0 152 -2 170 -26 230 -86 224 -293 383 -584 451 -44
10 -192 44 -329 75 -357 80 -485 129 -591 225 -28 26 -64 71 -80 101 -27 48
-30 61 -30 148 0 88 3 101 33 162 56 115 168 196 331 240 62 17 105 21 231 21
175 0 257 -16 371 -73 121 -61 228 -188 263 -311 41 -144 58 -159 175 -159 70
0 74 1 107 34 28 28 34 41 34 78 0 68 -26 155 -77 258 -39 79 -62 110 -138
186 -80 80 -104 98 -195 143 -145 70 -236 90 -465 105 -27 1 -93 0 -145 -4z"/>
<path d="M11090 13089 c-460 -30 -758 -245 -854 -615 -23 -90 -21 -137 9 -172
34 -41 75 -55 140 -50 92 8 115 34 145 168 52 227 234 371 519 411 170 25 436
-8 553 -67 129 -65 216 -193 238 -348 31 -219 -34 -360 -187 -405 -38 -12
-228 -40 -433 -66 -441 -54 -596 -89 -755 -168 -194 -96 -307 -229 -351 -413
-25 -104 -22 -315 5 -418 77 -290 302 -462 661 -506 246 -30 508 9 679 101
135 73 214 146 347 323 l59 79 12 -119 c24 -230 100 -308 314 -321 113 -7 195
3 220 28 24 24 27 135 4 179 -16 31 -25 35 -100 46 -84 11 -131 46 -154 113
-8 24 -11 249 -11 781 0 809 -2 845 -55 986 -31 83 -100 187 -162 245 -64 60
-171 122 -263 153 -138 46 -375 68 -580 55z m757 -1486 c-4 -226 -7 -267 -26
-333 -95 -325 -357 -532 -736 -581 -227 -29 -441 38 -566 179 -23 26 -58 80
-77 120 -30 63 -36 86 -40 167 -4 77 -1 105 18 166 19 65 29 80 88 139 133
131 343 205 727 255 388 51 554 92 587 145 7 11 16 16 21 11 6 -6 7 -121 4
-268z"/>
<path d="M9388 13004 c-61 -33 -58 37 -58 -1244 0 -1291 -4 -1206 60 -1244 35
-20 140 -21 179 -2 65 34 61 -57 61 1248 0 1302 4 1210 -60 1243 -38 19 -146
19 -182 -1z"/>
<path d="M15964 13958 c-59 -19 -127 -80 -159 -143 -39 -77 -43 -185 -7 -252
36 -68 77 -108 143 -138 54 -24 71 -27 133 -23 160 11 267 125 267 284 0 162
-122 285 -281 283 -36 -1 -79 -6 -96 -11z"/>
<path d="M14993 13860 c-68 -41 -63 89 -63 -1685 0 -1753 -4 -1637 56 -1684
21 -16 41 -21 92 -21 61 0 66 2 103 39 l39 39 0 1616 c0 1786 5 1655 -63 1696
-20 13 -50 20 -82 20 -32 0 -62 -7 -82 -20z"/>
<path d="M19969 12990 c-93 -16 -202 -51 -272 -86 -315 -159 -507 -432 -597
-850 -28 -126 -38 -445 -21 -591 49 -394 196 -688 431 -863 183 -136 349 -188
625 -196 185 -6 314 7 449 47 156 46 328 160 421 278 96 122 205 338 205 406
0 40 -37 103 -70 120 -37 19 -113 19 -150 0 -34 -17 -42 -31 -86 -136 -63
-154 -182 -300 -302 -373 -163 -99 -431 -131 -633 -75 -234 65 -437 262 -528
515 -38 105 -74 277 -66 316 9 38 52 88 92 104 26 12 184 14 860 14 768 0 830
1 863 18 55 27 72 68 71 165 -3 202 -60 443 -146 619 -111 225 -264 382 -470
484 -146 72 -218 86 -440 90 -104 1 -211 -1 -236 -6z m291 -240 c267 -31 485
-196 610 -462 45 -97 80 -216 80 -274 0 -51 -33 -103 -80 -126 -32 -17 -87
-18 -701 -18 l-666 0 -33 23 c-82 55 -93 114 -46 252 119 352 357 569 664 605
37 4 72 8 77 9 6 0 48 -4 95 -9z"/>
<path d="M15973 12910 c-67 -41 -63 39 -63 -1210 0 -1249 -4 -1169 63 -1210
41 -26 127 -27 168 -3 16 10 38 36 49 58 20 40 20 66 20 1146 0 719 -4 1117
-10 1141 -6 20 -26 50 -46 67 -30 27 -42 31 -92 31 -39 0 -67 -6 -89 -20z"/>
<path d="M16824 12911 c-35 -21 -64 -75 -64 -120 0 -25 728 -1934 842 -2209
42 -102 60 -112 201 -112 126 0 157 11 186 68 10 20 201 526 425 1124 437
1170 432 1152 385 1212 -29 37 -70 56 -121 56 -46 0 -100 -27 -117 -57 -5 -10
-175 -487 -376 -1058 -202 -572 -369 -1042 -372 -1045 -2 -2 -8 2 -13 9 -4 8
-169 464 -365 1015 -196 551 -368 1024 -381 1051 -13 29 -35 57 -53 68 -40 24
-136 23 -177 -2z"/>
<path d="M15430 8225 l0 -575 90 0 90 0 0 273 0 273 26 53 c36 71 86 104 168
109 51 3 67 0 96 -20 71 -47 75 -67 78 -395 l4 -293 84 0 84 0 0 323 c0 196
-4 337 -11 360 -14 53 -69 110 -132 138 -41 18 -70 23 -137 23 -99 0 -152 -19
-219 -79 l-41 -37 0 211 0 211 -90 0 -90 0 0 -575z"/>
<path d="M17690 8225 l0 -575 90 0 90 0 0 273 0 273 26 53 c36 71 86 104 168
109 51 3 67 0 96 -20 71 -47 75 -67 78 -395 l4 -293 84 0 84 0 0 323 c0 196
-4 337 -11 360 -14 53 -69 110 -132 138 -41 18 -70 23 -137 23 -99 0 -152 -19
-219 -79 l-41 -37 0 211 0 211 -90 0 -90 0 0 -575z"/>
<path d="M26330 8225 l0 -575 90 0 90 0 0 273 0 273 26 53 c36 71 86 104 168
109 51 3 67 0 96 -20 71 -47 75 -67 78 -395 l4 -293 84 0 84 0 0 323 c0 196
-4 337 -11 360 -14 53 -69 110 -132 138 -41 18 -70 23 -137 23 -99 0 -152 -19
-219 -79 l-41 -37 0 211 0 211 -90 0 -90 0 0 -575z"/>
<path d="M14940 8605 l0 -125 -65 0 -65 0 0 -70 0 -70 64 0 64 0 4 -287 c3
-255 6 -292 22 -324 34 -67 131 -98 262 -84 l64 7 0 69 0 69 -59 0 c-43 0 -65
5 -82 19 -24 19 -24 20 -27 275 l-3 256 85 0 86 0 0 70 0 70 -85 0 -85 0 0
125 0 125 -90 0 -90 0 0 -125z"/>
<path d="M23240 8605 l0 -125 -65 0 -65 0 0 -70 0 -70 64 0 64 0 4 -287 c3
-255 6 -292 22 -324 34 -67 131 -98 262 -84 l64 7 0 69 0 69 -59 0 c-43 0 -65
5 -82 19 -24 19 -24 20 -27 275 l-3 256 85 0 86 0 0 70 0 70 -85 0 -85 0 0
125 0 125 -90 0 -90 0 0 -125z"/>
<path d="M16621 8490 c-185 -39 -311 -212 -311 -427 0 -234 119 -391 323 -425
208 -34 396 70 451 250 7 22 6 22 -77 22 l-84 0 -30 -48 c-43 -69 -100 -96
-193 -90 -57 3 -77 9 -112 33 -49 35 -88 104 -95 170 l-6 45 307 0 306 0 0 69
c0 222 -152 393 -361 406 -41 2 -94 0 -118 -5z m201 -166 c43 -30 81 -92 93
-151 l7 -33 -216 0 -216 0 0 23 c0 38 46 123 82 150 51 39 77 47 145 44 50 -2
71 -9 105 -33z"/>
<path d="M19877 8490 c-56 -15 -89 -34 -135 -82 l-42 -43 0 58 0 57 -85 0 -85
0 0 -415 0 -415 90 0 90 0 0 278 c0 248 2 281 19 317 34 74 95 115 172 115 58
0 97 -24 120 -73 17 -38 19 -69 19 -339 l0 -298 89 0 90 0 3 288 c3 278 4 288
27 335 29 60 77 87 154 87 67 0 117 -30 134 -80 8 -24 12 -129 12 -332 l1
-298 90 0 91 0 -3 343 -3 342 -25 45 c-33 59 -90 97 -165 111 -120 22 -239
-12 -305 -88 -16 -18 -31 -33 -34 -33 -2 0 -14 16 -26 35 -42 69 -188 111
-293 85z"/>
<path d="M21180 8490 c-148 -23 -236 -100 -259 -226 l-9 -45 91 3 c90 3 91 3
98 32 17 64 89 106 184 106 68 0 137 -27 154 -58 16 -29 14 -84 -4 -109 -20
-29 -55 -39 -225 -64 -80 -11 -167 -30 -193 -41 -121 -52 -170 -203 -106 -330
67 -133 306 -166 487 -68 31 17 58 26 60 21 18 -54 93 -87 174 -77 77 11 78
11 78 77 l0 59 -35 0 c-24 0 -37 6 -45 19 -6 12 -10 117 -10 272 0 237 -1 255
-21 297 -26 52 -83 96 -153 118 -63 19 -193 26 -266 14z m255 -597 c-7 -40
-70 -98 -122 -112 -100 -28 -210 0 -239 62 -13 27 -14 41 -5 74 20 72 61 93
233 117 53 8 105 19 115 25 17 9 18 4 21 -62 2 -40 0 -86 -3 -104z"/>
<path d="M22169 8487 c-55 -16 -103 -47 -146 -96 l-33 -36 0 63 0 62 -85 0
-85 0 0 -415 0 -415 90 0 90 0 0 273 0 273 26 53 c36 71 86 104 168 109 51 3
67 0 96 -20 71 -47 75 -67 78 -395 l4 -293 84 0 84 0 0 323 c0 196 -4 337 -11
360 -14 53 -69 110 -130 136 -63 27 -168 35 -230 18z"/>
<path d="M25700 8486 c-189 -41 -300 -199 -300 -426 0 -277 180 -450 443 -426
165 15 265 93 316 244 12 34 21 66 21 72 0 6 -34 10 -88 10 l-87 0 -18 -48
c-9 -27 -27 -61 -39 -77 -47 -60 -155 -82 -233 -46 -50 23 -78 53 -107 116
-20 43 -23 66 -23 160 0 94 3 117 23 160 29 63 57 93 107 116 110 51 241 1
275 -103 l12 -38 90 0 90 0 -7 38 c-35 191 -242 299 -475 248z"/>
<path d="M18610 8178 c0 -348 6 -388 71 -462 44 -50 97 -72 194 -82 90 -9 162
15 231 79 l54 49 0 -56 0 -56 90 0 90 0 0 415 0 415 -89 0 -89 0 -4 -277 c-4
-293 -8 -323 -56 -377 -27 -30 -93 -56 -147 -56 -70 0 -115 25 -142 80 -22 43
-23 53 -23 337 l0 293 -90 0 -90 0 0 -302z"/>
<path d="M24520 8178 c0 -348 6 -388 71 -462 44 -50 97 -72 194 -82 90 -9 162
15 231 79 l54 49 0 -56 0 -56 90 0 90 0 0 415 0 415 -89 0 -89 0 -4 -277 c-4
-293 -8 -323 -56 -377 -27 -30 -93 -56 -147 -56 -70 0 -115 25 -142 80 -22 43
-23 53 -23 337 l0 293 -90 0 -90 0 0 -302z"/>
<path d="M23915 8326 c-106 -49 -165 -142 -165 -261 0 -204 189 -335 386 -268
66 22 145 101 167 167 21 62 22 139 1 199 -21 62 -87 135 -149 163 -70 33
-170 33 -240 0z"/>
</g>
</svg>
